<svg width="224" height="233" viewBox="0 0 224 233" fill="none" xmlns="http://www.w3.org/2000/svg">
<g clip-path="url(#clip0_102_1611)">
<path d="M163.593 16.7425L131.277 16.8469L131.336 35.0712L163.652 34.9668L163.593 16.7425Z" fill="#2F2E41"/>
<path d="M99.272 19.8888L82.6108 19.9426L82.5929 14.409C82.5861 12.3046 83.4572 10.2836 85.0147 8.79056C86.5722 7.29751 88.6884 6.45471 90.8979 6.44758C93.1073 6.44044 95.2289 7.26955 96.796 8.75251C98.3632 10.2355 99.2473 12.2508 99.2541 14.3552L99.272 19.8888ZM82.9785 19.5901L98.902 19.5387L98.8853 14.3563C98.8788 12.3452 98.0337 10.4191 96.536 9.00178C95.0383 7.58449 93.0106 6.7921 90.899 6.79892C88.7874 6.80574 86.7649 7.61121 85.2764 9.03815C83.7879 10.4651 82.9553 12.3966 82.9618 14.4078L82.9785 19.5901Z" fill="#3F3D56"/>
<path d="M107.508 19.1011L107.501 16.9385L65.1329 18.1567L63.9688 72.9392L70.2635 80.297L107.508 19.1011Z" fill="#3F3D56"/>
<path d="M115.006 18.3155L69.0835 19.4593L70.2636 80.297L114.57 75.6038L115.006 18.3155Z" fill="#0DA54B"/>
<path d="M154.689 215.309L149.476 215.326L146.935 196.183L154.628 196.158L154.689 215.309Z" fill="#FFB6B6"/>
<path d="M156.034 220.117L139.225 220.171L139.225 219.969C139.22 218.316 139.904 216.729 141.127 215.556C142.35 214.384 144.012 213.722 145.747 213.716L145.748 213.716L156.014 213.684L156.034 220.117Z" fill="#2F2E41"/>
<path d="M135.555 215.371L130.342 215.387L127.801 196.245L135.494 196.22L135.555 215.371Z" fill="#FFB6B6"/>
<path d="M136.9 220.179L120.091 220.233L120.091 220.03C120.085 218.378 120.77 216.791 121.993 215.618C123.216 214.446 124.878 213.784 126.613 213.778L126.613 213.778L136.88 213.745L136.9 220.179Z" fill="#2F2E41"/>
<path d="M119.858 95.5058C119.858 95.5058 112.292 111.153 119.275 142.576C126.257 173.999 126.426 208.52 126.426 208.52L136.947 208.65L142.617 134.308L145.949 207.571L156.314 207.538L165.217 135.393C165.217 135.393 171.124 103.172 157.7 97.4499L119.858 95.5058Z" fill="#2F2E41"/>
<path d="M156.138 40.2559L133.095 38.3078C125.887 43.3463 121.861 52.3669 122.723 61.6579C123.893 74.2552 123.567 91.5977 114.535 99.1606C114.535 99.1606 139.278 117.636 161.147 99.9617C161.147 99.9617 153.588 80.8554 158.711 73.1991C163.834 65.5429 165.621 44.0727 156.138 40.2559Z" fill="#E4E4E4"/>
<path d="M87.4915 9.34067C87.4229 9.97336 87.5008 10.6126 87.7196 11.2135C87.9385 11.8143 88.2931 12.3621 88.7583 12.8182C89.2235 13.2744 89.7881 13.6278 90.4124 13.8536C91.0366 14.0793 91.7053 14.172 92.3712 14.125L122.875 41.0626L128.301 33.1357L96.6105 9.1495C96.4539 8.08916 95.8942 7.12051 95.0377 6.42712C94.1811 5.73372 93.0872 5.36375 91.9631 5.38731C90.8391 5.41088 89.763 5.82634 88.9389 6.55497C88.1147 7.2836 87.5997 8.27477 87.4915 9.34067Z" fill="#FFB6B6"/>
<path d="M117.182 36.9044L124.375 29.8215C124.579 29.62 124.827 29.4628 125.101 29.3607C125.375 29.2586 125.669 29.214 125.963 29.2299C126.257 29.2458 126.544 29.3218 126.804 29.4528C127.064 29.5838 127.292 29.7666 127.471 29.9889L133.752 37.7778C134.828 38.7807 135.442 40.1492 135.461 41.5833C135.479 43.0173 134.9 44.4 133.849 45.4281C132.799 46.4562 131.364 47.0459 129.858 47.0679C128.353 47.0898 126.9 46.5422 125.817 45.5452L117.46 39.8463C117.221 39.6831 117.022 39.4726 116.876 39.2293C116.73 38.986 116.64 38.7156 116.614 38.4364C116.587 38.1572 116.624 37.8758 116.722 37.6115C116.82 37.3471 116.977 37.106 117.182 36.9044L117.182 36.9044Z" fill="#E4E4E4"/>
<path d="M200.705 74.814C200.737 74.1786 200.622 73.5445 200.368 72.9562C200.115 72.3678 199.729 71.8397 199.238 71.4089C198.746 70.9781 198.162 70.6551 197.526 70.4627C196.889 70.2703 196.216 70.2132 195.554 70.2953L163.526 45.0139L158.57 53.2156L191.611 75.4874C191.83 76.5378 192.445 77.4753 193.341 78.1223C194.236 78.7693 195.35 79.0808 196.471 78.9978C197.592 78.9148 198.642 78.443 199.423 77.6719C200.203 76.9008 200.659 75.8839 200.705 74.814Z" fill="#FFB6B6"/>
<path d="M169.453 48.8644L162.684 56.3169C162.492 56.5289 162.253 56.699 161.986 56.8154C161.718 56.9319 161.427 56.992 161.133 56.9917C160.838 56.9913 160.548 56.9306 160.28 56.8136C160.013 56.6966 159.775 56.5261 159.583 56.3136L152.857 48.8692C151.724 47.9249 151.031 46.5911 150.929 45.1601C150.826 43.7291 151.324 42.3178 152.313 41.2357C153.302 40.1535 154.701 39.4888 156.203 39.3873C157.705 39.2858 159.188 39.7557 160.326 40.6941L169.003 45.9419C169.251 46.0922 169.463 46.2918 169.623 46.527C169.783 46.7622 169.888 47.0275 169.931 47.3048C169.973 47.5822 169.953 47.865 169.87 48.1342C169.788 48.4033 169.646 48.6524 169.453 48.8644Z" fill="#E4E4E4"/>
<path d="M203.986 85.5372L191.365 85.578L191.352 81.3864C191.347 79.7924 192.007 78.2615 193.186 77.1306C194.366 75.9996 195.969 75.3612 197.643 75.3558C199.316 75.3504 200.923 75.9785 202.11 77.1018C203.297 78.2251 203.967 79.7516 203.972 81.3456L203.986 85.5372ZM191.644 85.3109L203.706 85.272L203.693 81.3465C203.688 79.8231 203.048 78.3642 201.913 77.2906C200.779 76.217 199.243 75.6168 197.644 75.622C196.044 75.6271 194.512 76.2373 193.385 77.3181C192.257 78.399 191.626 79.8621 191.631 81.3855L191.644 85.3109Z" fill="#3F3D56"/>
<path d="M210.224 84.9404L210.219 83.3022L178.126 84.2252L177.245 125.721L182.013 131.295L210.224 84.9404Z" fill="#3F3D56"/>
<path d="M215.904 84.3455L181.119 85.212L182.013 131.295L215.574 127.74L215.904 84.3455Z" fill="#0DA54B"/>
<path d="M146.217 34.6181C153.732 34.5938 159.805 28.772 159.782 21.6146C159.759 14.4573 153.648 8.67481 146.133 8.69909C138.619 8.72336 132.546 14.5452 132.569 21.7025C132.592 28.8599 138.703 34.6424 146.217 34.6181Z" fill="#FFB6B6"/>
<path d="M139.892 15.903C144.613 20.2812 152.806 20.6758 157.969 16.7737C159.421 21.4885 159.595 26.4772 158.473 31.2738C157.352 36.0705 154.973 40.5185 151.557 44.2025C154.44 45.1841 157.752 44.5215 160.321 42.9338C162.889 41.3461 164.788 38.9285 166.218 36.3497C169.757 29.9659 170.624 22.1822 168.083 15.3823C165.542 8.58232 159.489 2.95649 152.151 1.15218C144.814 -0.652129 136.414 1.63306 131.534 7.15698C126.43 12.9333 125.628 21.3755 127.896 28.6074C130.164 35.8393 135.107 42.0402 140.534 47.5393C137.915 41.1843 136.171 34.5332 135.344 27.7514C135.061 25.4288 134.893 23.0342 135.575 20.7878C136.257 18.5414 137.946 16.4455 140.308 15.8073" fill="#2F2E41"/>
<path d="M222.741 220.666L60.7386 221.189C60.6258 221.189 60.5176 221.147 60.4376 221.071C60.3576 220.996 60.3124 220.893 60.3121 220.785C60.3118 220.678 60.3562 220.575 60.4357 220.499C60.5152 220.422 60.6232 220.379 60.736 220.379L222.739 219.856C222.851 219.855 222.96 219.898 223.04 219.973C223.12 220.049 223.165 220.152 223.165 220.259C223.166 220.367 223.121 220.47 223.042 220.546C222.962 220.622 222.854 220.665 222.741 220.666Z" fill="#CACACA"/>
<path d="M197.506 185.59L184.885 185.631L184.872 181.439C184.867 179.845 185.526 178.315 186.706 177.184C187.886 176.053 189.489 175.414 191.163 175.409C192.836 175.404 194.443 176.032 195.63 177.155C196.817 178.278 197.487 179.805 197.492 181.399L197.506 185.59ZM185.164 185.364L197.225 185.325L197.213 181.4C197.208 179.876 196.568 178.417 195.433 177.344C194.299 176.27 192.763 175.67 191.163 175.675C189.564 175.68 188.032 176.29 186.904 177.371C185.777 178.452 185.146 179.915 185.151 181.439L185.164 185.364Z" fill="#CACACA"/>
<path d="M203.744 184.994L203.739 183.355L171.646 184.278L170.765 225.774L175.533 231.348L203.744 184.994Z" fill="#CACACA"/>
<path d="M209.424 184.398L174.639 185.265L175.532 231.348L209.093 227.793L209.424 184.398Z" fill="#E4E4E4"/>
</g>
<defs>
<clipPath id="clip0_102_1611">
<rect width="277.234" height="230.893" fill="white" transform="translate(-54.7783 1.19763) rotate(-0.185082)"/>
</clipPath>
</defs>
</svg>
